<svg xmlns="http://www.w3.org/2000/svg" width="2178" height="55" viewBox="0 0 2178 55">
  <g fill="none" fill-rule="evenodd">
    <path fill="#000" d="M2177.9993 342V24.4267l-8.0939.0886-8.6433.9758-10.9098-7.136-6.821 1.7893-8.9866.4838-5.1244 1.7918-6.2889 2.4954-9.4365 2.876-7.4632 1.7327-3.9476 2.3076-7.8402 1.4827-7.753-3.5476-9.78-.241-4.62-3.2237-8.9817-.7027-7.4246.5314-7.4591.5363-9.7848 1.4498-3.9525 2.2896-10.1018-3.3573-17.5411-2.8267-9.756-.4773-7.0223-.8946-8.9184-4.2872-15.5957-1.0972-7.0534.77-3.0952-2.2338-3.867-2.2404-8.953-2.37-8.562-2.1312c-4.6505-1.5557-7.009-.8939-8.1727-.9201-1.18-.0263-7.0879 1.9837-7.0879 1.9837l-10.5575 1.4162-7.5355 4.133-5.1055 1.5384-4.3401 2.5332-.0526 2.8775-6.6625 1.2678-5.5342 3.2211-7.0172-1.1234c-8.2122.282-10.9649 1.4063-10.9649 1.4063l-8.962.064c-5.8921-1.4638-10.9697-1.2629-10.9697-1.2629l-7.014 1.2137-5.5391-3.1465-6.6642-1.189-.0583-2.8719-4.3426-2.4749-9.471-3.9542-11.3542-1.007c-2.3864-1.8238-8.2959-3.7591-9.4776-3.7124-.7769.027-3.5033.3707-8.1703 1.0308l-8.5636 2.2354-8.9439 2.4905-3.8654 2.2912-3.0886 2.2797-7.0543-.6855-9.3602.3567-6.2371.9455-3.8663 2.7742-5.0414 1.6295-7.0157.989-5.429 1.8721-16.784 2.3216-12.0645 1.8992-7.0715-1.1809-9.7848-1.3145-7.4623-.4363-7.4255-.4362-8.9808.8159-4.6136 3.2843-6.6608-.469-8.5497 2.725-10.1584.3854-3.9452-2.2576-3.201-2.9932-13.7078-1.3908-6.2979-2.4118-5.1252-1.7212-8.9948-.3756-9.398-.6101-10.9714-1.0202-11.0043-2.4552-10.1403.3854-13.6396 2.1732c-2.2961 2.0107-9.7199 3.0022-10.8959 3.0489-1.1727.0467-7.4254.0418-7.4254.0418l-12.1926-3.6049-11.3525-.5347-13.7693-4.0346-10.5526-.3256-6.6872-1.9033-11.3828-1.7377-8.213-.633-5.8158 2.3642-6.2134 1.9172-8.9955 1.0521-3.0451 3.2245-10.5847-1.5065-5.1227-1.7212c-6.6453-.2337-6.6625-1.1948-6.6748-1.9091-.0156-.7307-7.8599-1.8672-7.8599-1.8672l-4.7663-3.7764-12.526-.5945-9.2904 4.6587-2.678 2.502-7.372 3.1563.0574 2.8611.0518 2.6373-6.4039-4.5316-9.4719-3.9542-11.354-1.0079c-2.3849-1.8287-8.2952-3.7582-9.477-3.718-.7776.0328-3.5016.3772-8.171 1.0308l-8.5595 2.242-8.9472 2.4913-9.7388-1.5795-.0681-3.3498-5.9194-2.4192-2.0472-4.9465-2.7634 5.1884-5.1441-3.2842-8.2524-2.315-3.969-2.4872-5.5234 1.3662-3.946 4.1724-5.5341-3.3885-8.59.3198L1202.8292 0l-5.8027 2.8595-3.4787 2.2822-3.8753-2.4528-4.6415 2.5709-2.6673 2.743-4.6309 3.5328-6.628 1.2063.0197-4.4972-9.7018 1.8115-5.8101 2.6119-3.0845 2.3863-8.5916.3256-3.0828 2.638-9.6772 4.6735-6.6157 1.9246-7.3926 1.481-12.4964.4683-3.978-2.9661-7.4353-.2001-3.831 3.7402-12.1777.0033-9.3619-2.0698-9.8028-1.0628-5.1294-1.968-5.9127 1.1324-11.313.264-6.982.5175-6.6617-1.9476-8.5768 1.7516-10.624-3.6705-8.6466-1.8287-14.4403.542-5.1359-2.1993-7.8385-1.3785-8.4642-2.5635-6.4178 1.3482.0024 5.5476-14.1117-2.9907-8.2138-.634-5.8159 2.365-6.2116 1.9182-8.9924 1.0513-3.0483 3.2244-10.5814-1.5064-5.1268-1.7221c-6.6445-.233-6.6633-1.194-6.6748-1.9083-.0156-.7306-7.8599-1.8672-7.8599-1.8672l-4.7663-3.7813-12.5211-.5953-9.2953 4.6587-2.6788 2.5077-7.372 3.1506.0525 2.5807-7.9798-3.1113-4.3598-2.4798-11.3533-1.0013c-2.3865-1.8295-8.2967-3.7599-9.4777-3.718-.7776.027-3.5033.3755-8.1719 1.0307l-8.5587 2.2355-8.9512 2.4913-5.3264 3.3695-8.6778.515-9.3643.3576-6.2339.9447-7.7826.7413c-1.5143-1.226-2.9359-2.3002-4.2597-3.2097-5.3255-1.0152-5.6458-1.1915-5.8585-1.5195-1.603-2.4192-1.782-2.5725-1.9833-2.652a78.959 78.959 0 0 1-7.0944-3.1367c-1.3189-1.0505-3.5772-1.5466-6.7644-1.4827l-8.608.3248-5.6778 2.816c-.0559.0164-1.2343.7832-3.5436 2.2871-2.5827 1.2219-5.0907 1.887-7.5264 1.9968-1.0561 2.0313-1.3386 2.575-1.7788 2.7906l-1.9348 2.3847-4.446 3.427c-2.187.146-4.4576.5822-6.812 1.3162l.0485 2.4962-7.9231-.4625-8.9808.8217-4.6136 3.285L638.55 25.9217l-6.6157 1.9313-7.3975 1.4752-12.4915.4732-3.982-2.9719-7.4313-.1943-3.835 3.7353-8.7041-.0189-9.3988-.6035-5.337-1.6442-7.8213-.8504-5.2057-1.9804-13.7521 1.3793-8.888.9906-8.2343-2.4035-8.5768 1.7573-10.624-3.6713-8.6466-1.8287-14.4411.542-5.135-2.1993-7.8345-1.3777-8.4642-2.5635-6.422 1.3482.005 4.1535-10.6364-1.6253-8.2138-.634-5.82 2.3708-6.2075 1.9173-8.9956 1.0472-3.0492 3.2236-10.5813-1.5064-5.126-1.7213c-6.6412-.2337-6.6593-1.1948-6.6749-1.909-.0156-.7307-7.8566-1.8616-7.8566-1.8616L381.389 16.92l-12.5252-.5954-9.2912 4.6587-2.678 2.502-7.372 3.1506.0583 2.8669.0517 2.6307-6.6387.5092-4.63 2.7964.0517 2.6356-10.142 1.577-9.3405 2.2641-9.366 1.0718-2.2443 4.6407-7.4558-1.4023-.092-4.548-2.7864-2.2822-.1215-6.229-4.0355-2.2749-6.2659-.966-9.0497.315-.0674-3.3508-5.9193-2.4191-2.0514-4.9457-7.9083-2.374-6.2856-3.327-3.9665 2.4921-7.4993-4.028-3.941 4.1773-5.5334-3.3934-8.5915.324-4.7047-5.523-5.8028 2.8537-3.4852-3.4114-8.5603 1.9944-2.6493 3.6935-1.9003 3.436-5.8388-5.4714-3.4688 2.5299-6.6182 1.2005-8.8938 4.4143-3.0894 2.392-8.5866.3256-3.0828 2.6332-9.678 4.6718-6.6158 1.9263-7.3975 1.4802-12.4866.4682-3.982-2.967-7.4361-.1934-3.8302 3.7402-8.5948.319-7.818.2977-5.1268-2.689-9.8037-1.0627-5.1244-1.969-7.0066 1.4564-8.9636 1.3113-10.5813-1.5294-8.599.3247-6.6814-1.6671-8.2425-1.8427-8.6466-1.8278-12.457.4674V342h2178z"/>
  </g>
</svg>
